<svg width="415" height="57" viewBox="0 0 415 57" fill="none" xmlns="http://www.w3.org/2000/svg">
<path stroke="#409eff" stroke-width="2" d="M60.9844 54V56H62.9844V54H60.9844ZM51.7734 54H49.7734V56H51.7734V54ZM51.7734 23.9766H53.7734V16.411L50.0347 22.9882L51.7734 23.9766ZM35.5664 52.4883L33.8277 51.4999L33.8201 51.5132L33.8128 51.5266L35.5664 52.4883ZM33.8789 54.1406L32.9616 52.3634L32.9496 52.3696L32.9377 52.3759L33.8789 54.1406ZM29.3438 54.1406L28.3776 55.8918L28.39 55.8986L28.4026 55.9053L29.3438 54.1406ZM27.7266 52.4883L29.4802 51.5266L29.4719 51.5116L29.4634 51.4967L27.7266 52.4883ZM11.4492 23.9766L13.1861 22.985L9.44922 16.4394V23.9766H11.4492ZM11.4492 54V56H13.4492V54H11.4492ZM2.30859 54H0.308594V56H2.30859V54ZM3.22266 4.67578L1.63909 3.45417L1.628 3.46855L1.61717 3.48313L3.22266 4.67578ZM5.68359 3.02344L5.22035 1.07783L5.18299 1.08672L5.146 1.09704L5.68359 3.02344ZM7.16016 2.91797L6.97054 4.90896L7.0177 4.91345L7.06503 4.91571L7.16016 2.91797ZM8.56641 3.23438L7.79029 5.07765L7.84731 5.10165L7.90571 5.12209L8.56641 3.23438ZM9.83203 3.97266L8.51502 5.47781L8.5425 5.50186L8.57085 5.52488L9.83203 3.97266ZM10.7812 5.09766L12.5148 4.1003L12.5121 4.09558L10.7812 5.09766ZM31.5938 41.2734L29.8602 42.2708L31.5938 45.2841L33.3273 42.2708L31.5938 41.2734ZM52.4062 5.09766L50.6952 4.06205L50.6837 4.08105L50.6727 4.1003L52.4062 5.09766ZM54.6211 3.19922L53.894 1.33606L53.8861 1.33913L53.8783 1.34227L54.6211 3.19922ZM57.6094 3.02344L58.1588 1.10039L58.1268 1.09123L58.0944 1.08315L57.6094 3.02344ZM60.9844 52H51.7734V56H60.9844V52ZM53.7734 54V23.9766H49.7734V54H53.7734ZM50.0347 22.9882L33.8277 51.4999L37.3051 53.4766L53.5122 24.9649L50.0347 22.9882ZM33.8128 51.5266C33.603 51.9092 33.3294 52.1736 32.9616 52.3634L34.7962 55.9179C35.8815 55.3577 36.7329 54.5205 37.32 53.4499L33.8128 51.5266ZM32.9377 52.3759C32.533 52.5918 32.0958 52.7031 31.5938 52.7031V56.7031C32.7323 56.7031 33.8186 56.4395 34.8201 55.9053L32.9377 52.3759ZM31.5938 52.7031C31.1252 52.7031 30.6984 52.5964 30.2849 52.3759L28.4026 55.9053C29.3954 56.4348 30.4686 56.7031 31.5938 56.7031V52.7031ZM30.3099 52.3895C29.9849 52.2102 29.7091 51.9441 29.4802 51.5266L25.9729 53.4499C26.5409 54.4856 27.3432 55.3211 28.3776 55.8918L30.3099 52.3895ZM29.4634 51.4967L13.1861 22.985L9.71234 24.9681L25.9897 53.4799L29.4634 51.4967ZM9.44922 23.9766V54H13.4492V23.9766H9.44922ZM11.4492 52H2.30859V56H11.4492V52ZM4.30859 54V7.48828H0.308594V54H4.30859ZM4.30859 7.48828C4.30859 6.8484 4.48363 6.33219 4.82814 5.86843L1.61717 3.48313C0.742929 4.65999 0.308594 6.01878 0.308594 7.48828H4.30859ZM4.80622 5.89739C5.17271 5.42231 5.62447 5.11636 6.22119 4.94983L5.146 1.09704C3.72709 1.49302 2.53823 2.28863 1.63909 3.45417L4.80622 5.89739ZM6.14683 4.96905C6.43043 4.90153 6.7021 4.88339 6.97054 4.90896L7.34977 0.926978C6.63384 0.858793 5.92114 0.910972 5.22035 1.07783L6.14683 4.96905ZM7.06503 4.91571C7.32764 4.92821 7.56548 4.98299 7.79029 5.07765L9.34252 1.3911C8.67671 1.11076 7.97704 0.954602 7.25529 0.920232L7.06503 4.91571ZM7.90571 5.12209C8.13243 5.20145 8.33168 5.31739 8.51502 5.47781L11.149 2.4675C10.5824 1.97167 9.93788 1.59543 9.22711 1.34666L7.90571 5.12209ZM8.57085 5.52488C8.74517 5.66653 8.90642 5.85104 9.0504 6.09973L12.5121 4.09558C12.1405 3.45365 11.6689 2.88816 11.0932 2.42043L8.57085 5.52488ZM9.04767 6.09501L29.8602 42.2708L33.3273 40.2761L12.5148 4.1003L9.04767 6.09501ZM33.3273 42.2708L54.1398 6.09501L50.6727 4.1003L29.8602 40.2761L33.3273 42.2708ZM54.1173 6.13326C54.4389 5.60191 54.843 5.26452 55.3639 5.05617L53.8783 1.34227C52.5242 1.88392 51.4518 2.81215 50.6952 4.06205L54.1173 6.13326ZM55.3482 5.06237C55.9104 4.84296 56.4822 4.8032 57.1243 4.96372L58.0944 1.08315C56.674 0.728046 55.2536 0.805482 53.894 1.33606L55.3482 5.06237ZM57.0599 4.94649C57.6283 5.10886 58.0764 5.41097 58.4516 5.89739L61.6187 3.45417C60.7283 2.29997 59.5592 1.50051 58.1588 1.10039L57.0599 4.94649ZM58.4516 5.89739C58.8092 6.36095 58.9844 6.86702 58.9844 7.48828H62.9844C62.9844 6.00017 62.5267 4.63124 61.6187 3.45417L58.4516 5.89739ZM58.9844 7.48828V54H62.9844V7.48828H58.9844ZM111.891 53.1562L112.639 55.0109L112.648 55.0073L111.891 53.1562ZM82.7461 53.1562L81.9888 55.0073L81.9961 55.0103L82.0033 55.0132L82.7461 53.1562ZM71.6367 42.082L69.7856 42.8393L69.7886 42.8465L69.7916 42.8536L71.6367 42.082ZM71.6367 15.5391L69.7891 14.7734L69.7856 14.7818L71.6367 15.5391ZM76.0664 8.85938L77.4717 10.2825L77.4806 10.2736L76.0664 8.85938ZM111.891 4.46484L111.127 6.31351L111.133 6.31594L111.891 4.46484ZM118.57 8.85938L117.156 10.2736L117.165 10.2825L118.57 8.85938ZM122.965 15.5391L121.111 16.2905L121.114 16.2963L122.965 15.5391ZM114.527 19.0898L112.658 19.8018L112.665 19.8199L112.672 19.8378L114.527 19.0898ZM112.102 15.3281L110.672 16.7264L110.687 16.7424L110.703 16.7581L112.102 15.3281ZM108.34 12.9023L107.592 14.7572L107.61 14.7644L107.628 14.7713L108.34 12.9023ZM86.2617 12.9023L86.9837 14.7675L86.9916 14.7644L86.9994 14.7613L86.2617 12.9023ZM82.5 15.3281L83.8982 16.7581L83.9063 16.7503L83.9142 16.7423L82.5 15.3281ZM80.0391 19.0898L78.1801 18.3522L78.177 18.36L78.1739 18.3679L80.0391 19.0898ZM80.0391 38.5312L78.1701 39.2432L78.177 39.2613L78.1842 39.2792L80.0391 38.5312ZM82.5 42.293L81.0858 43.7072L81.0937 43.7151L81.1018 43.723L82.5 42.293ZM86.2617 44.7188L85.5138 46.5736L85.5317 46.5809L85.5497 46.5877L86.2617 44.7188ZM108.305 44.7188L109.027 46.5839L109.035 46.5808L109.042 46.5777L108.305 44.7188ZM112.102 42.293L113.5 43.723L113.508 43.7151L113.516 43.7072L112.102 42.293ZM114.527 38.5312L112.668 37.7936L112.665 37.8014L112.662 37.8093L114.527 38.5312ZM122.547 33.6094C122.547 36.4466 122.061 39.0105 121.114 41.3248L124.816 42.8393C125.979 39.9973 126.547 36.9128 126.547 33.6094H122.547ZM121.114 41.3248C120.154 43.6697 118.834 45.6697 117.156 47.3475L119.985 50.1759C122.057 48.1037 123.666 45.6506 124.816 42.8393L121.114 41.3248ZM117.156 47.3475C115.478 49.0253 113.478 50.3459 111.133 51.3052L112.648 55.0073C115.459 53.8573 117.912 52.2481 119.985 50.1759L117.156 47.3475ZM111.142 51.3017C108.847 52.2279 106.315 52.7031 103.523 52.7031V56.7031C106.778 56.7031 109.824 56.1471 112.639 55.0108L111.142 51.3017ZM103.523 52.7031H91.1484V56.7031H103.523V52.7031ZM91.1484 52.7031C88.3567 52.7031 85.8105 52.228 83.4889 51.2993L82.0033 55.0132C84.8379 56.147 87.8933 56.7031 91.1484 56.7031V52.7031ZM83.5034 51.3052C81.1584 50.3459 79.1584 49.0253 77.4806 47.3475L74.6522 50.1759C76.7244 52.2481 79.1775 53.8573 81.9888 55.0073L83.5034 51.3052ZM77.4806 47.3475C75.7995 45.6664 74.465 43.6615 73.4819 41.3104L69.7916 42.8536C70.9646 45.6588 72.5833 48.107 74.6522 50.1759L77.4806 47.3475ZM73.4878 41.3248C72.5411 39.0105 72.0547 36.4466 72.0547 33.6094H68.0547C68.0547 36.9128 68.623 39.9973 69.7856 42.8393L73.4878 41.3248ZM72.0547 33.6094V23.9766H68.0547V33.6094H72.0547ZM72.0547 23.9766C72.0547 21.1649 72.5403 18.6124 73.4878 16.2963L69.7856 14.7818C68.6237 17.6219 68.0547 20.6945 68.0547 23.9766H72.0547ZM73.4843 16.3047C74.4674 13.9325 75.7993 11.934 77.4717 10.2825L74.6611 7.4363C72.5835 9.48791 70.9622 11.9425 69.7891 14.7734L73.4843 16.3047ZM77.4806 10.2736C79.1584 8.5958 81.1584 7.27523 83.5034 6.31594L81.9888 2.61375C79.1775 3.76384 76.7244 5.37295 74.6522 7.44516L77.4806 10.2736ZM83.5034 6.31594C85.8213 5.3677 88.3624 4.88281 91.1484 4.88281V0.882812C87.8876 0.882812 84.8272 1.45262 81.9888 2.61375L83.5034 6.31594ZM91.1484 4.88281H103.523V0.882812H91.1484V4.88281ZM103.523 4.88281C106.31 4.88281 108.837 5.36776 111.127 6.3135L112.654 2.61619C109.835 1.45256 106.784 0.882812 103.523 0.882812V4.88281ZM111.133 6.31594C113.478 7.27523 115.478 8.5958 117.156 10.2736L119.985 7.44516C117.912 5.37295 115.459 3.76384 112.648 2.61375L111.133 6.31594ZM117.165 10.2825C118.834 11.9307 120.152 13.9242 121.111 16.2905L124.818 14.7877C123.668 11.9508 122.057 9.49122 119.976 7.4363L117.165 10.2825ZM121.114 16.2963C122.061 18.6124 122.547 21.1649 122.547 23.9766H126.547C126.547 20.6945 125.978 17.6219 124.816 14.7818L121.114 16.2963ZM122.547 23.9766V33.6094H126.547V23.9766H122.547ZM117.406 23.9766C117.406 21.9541 117.077 20.066 116.382 18.3419L112.672 19.8378C113.149 21.0199 113.406 22.3897 113.406 23.9766H117.406ZM116.396 18.3779C115.738 16.6503 114.776 15.146 113.5 13.8981L110.703 16.7581C111.536 17.5728 112.191 18.5763 112.658 19.8018L116.396 18.3779ZM113.532 13.9299C112.284 12.6537 110.779 11.6915 109.052 11.0334L107.628 14.7713C108.853 15.2382 109.857 15.8932 110.672 16.7264L113.532 13.9299ZM109.088 11.0475C107.37 10.3547 105.506 10.0234 103.523 10.0234V14.0234C105.056 14.0234 106.404 14.2781 107.592 14.7572L109.088 11.0475ZM103.523 10.0234H91.1484V14.0234H103.523V10.0234ZM91.1484 10.0234C89.1451 10.0234 87.2622 10.3536 85.524 11.0434L86.9994 14.7613C88.2144 14.2792 89.5893 14.0234 91.1484 14.0234V10.0234ZM85.5397 11.0372C83.8388 11.6956 82.3461 12.6536 81.0858 13.9139L83.9142 16.7423C84.7633 15.8933 85.7783 15.2341 86.9837 14.7675L85.5397 11.0372ZM81.1018 13.8981C79.8316 15.14 78.8613 16.6354 78.1801 18.3522L81.898 19.8275C82.3887 18.5912 83.059 17.5787 83.8982 16.7581L81.1018 13.8981ZM78.1739 18.3679C77.5094 20.0846 77.1953 21.9635 77.1953 23.9766H81.1953C81.1953 22.3803 81.4438 21.0013 81.9042 19.8118L78.1739 18.3679ZM77.1953 23.9766V33.6094H81.1953V23.9766H77.1953ZM77.1953 33.6094C77.1953 35.6232 77.5096 37.5094 78.1701 39.2432L81.908 37.8193C81.4436 36.6 81.1953 35.2049 81.1953 33.6094H77.1953ZM78.1842 39.2792C78.8655 40.969 79.8314 42.4528 81.0858 43.7072L83.9142 40.8788C83.0593 40.0238 82.3845 38.9998 81.8939 37.7833L78.1842 39.2792ZM81.1018 43.723C82.3548 44.9482 83.8335 45.8961 85.5138 46.5736L87.0097 42.8639C85.7837 42.3695 84.7546 41.7003 83.8982 40.863L81.1018 43.723ZM85.5497 46.5877C87.2807 47.2472 89.1546 47.5625 91.1484 47.5625V43.5625C89.5798 43.5625 88.1958 43.3153 86.9737 42.8498L85.5497 46.5877ZM91.1484 47.5625H103.453V43.5625H91.1484V47.5625ZM103.453 47.5625C105.446 47.5625 107.313 47.2473 109.027 46.5839L107.583 42.8536C106.39 43.3152 105.022 43.5625 103.453 43.5625V47.5625ZM109.042 46.5777C110.746 45.9016 112.241 44.9535 113.5 43.723L110.703 40.863C109.852 41.695 108.816 42.364 107.567 42.8598L109.042 46.5777ZM113.516 43.7072C114.776 42.4469 115.734 40.9541 116.392 39.2532L112.662 37.8093C112.196 39.0146 111.536 40.0297 110.687 40.8788L113.516 43.7072ZM116.386 39.2689C117.077 37.5278 117.406 35.6326 117.406 33.6094H113.406C113.406 35.1956 113.149 36.5815 112.668 37.7936L116.386 39.2689ZM117.406 33.6094V23.9766H113.406V33.6094H117.406ZM182.977 3.58594L184.772 4.46736L186.187 1.58594H182.977V3.58594ZM159.105 52.207L160.894 53.1015L160.898 53.095L160.901 53.0885L159.105 52.207ZM157.418 54L156.397 52.2803L156.365 52.2993L156.334 52.3194L157.418 54ZM152.566 54L153.626 52.304L153.619 52.2994L153.612 52.2948L152.566 54ZM150.879 52.207L149.083 53.0874L149.097 53.1166L149.113 53.1453L150.879 52.207ZM127.043 3.58594V1.58594H123.835L125.247 4.46631L127.043 3.58594ZM137.273 3.58594L139.071 2.70895L138.523 1.58594H137.273V3.58594ZM154.992 39.9023L153.195 40.7793L154.989 44.4561L156.788 40.7821L154.992 39.9023ZM172.781 3.58594V1.58594H171.534L170.985 2.70615L172.781 3.58594ZM181.181 2.70452L157.31 51.3256L160.901 53.0885L184.772 4.46736L181.181 2.70452ZM157.317 51.3126C157.12 51.7053 156.831 52.0225 156.397 52.2803L158.439 55.7197C159.505 55.0869 160.341 54.2087 160.894 53.1015L157.317 51.3126ZM156.334 52.3194C155.94 52.5731 155.51 52.7031 154.992 52.7031V56.7031C156.255 56.7031 157.442 56.3644 158.502 55.6806L156.334 52.3194ZM154.992 52.7031C154.508 52.7031 154.065 52.5783 153.626 52.304L151.506 55.696C152.568 56.3592 153.742 56.7031 154.992 56.7031V52.7031ZM153.612 52.2948C153.188 52.0355 152.875 51.7021 152.645 51.2687L149.113 53.1453C149.679 54.2119 150.491 55.0739 151.521 55.7052L153.612 52.2948ZM152.675 51.3267L128.839 2.70556L125.247 4.46631L149.083 53.0874L152.675 51.3267ZM127.043 5.58594H137.273V1.58594H127.043V5.58594ZM135.476 4.46292L153.195 40.7793L156.79 39.0254L139.071 2.70895L135.476 4.46292ZM156.788 40.7821L174.577 4.46573L170.985 2.70615L153.196 39.0226L156.788 40.7821ZM172.781 5.58594H182.977V1.58594H172.781V5.58594ZM236.203 52.6992L237.576 54.1532L237.597 54.1336L237.617 54.1134L236.203 52.6992ZM200.625 51.4336L199.758 53.2359L199.772 53.2425L199.785 53.2488L200.625 51.4336ZM191.062 43.2422L189.386 44.3322L189.394 44.3444L189.402 44.3564L191.062 43.2422ZM188.18 36.8438L186.259 37.403L186.261 37.4081L188.18 36.8438ZM187.125 3.58594V1.58594H185.125V3.58594H187.125ZM196.266 3.58594H198.266V1.58594H196.266V3.58594ZM197.32 35.332L195.46 36.0664L195.464 36.0769L195.468 36.0874L197.32 35.332ZM207.41 44.1211L206.871 46.047L206.881 46.0497L207.41 44.1211ZM210.539 44.7539L210.33 46.7429L210.358 46.7459L210.386 46.748L210.539 44.7539ZM228.398 44.8594V46.8594H230.398V44.8594H228.398ZM228.398 3.58594V1.58594H226.398V3.58594H228.398ZM237.539 3.58594H239.539V1.58594H237.539V3.58594ZM235.539 49.3945C235.539 49.8072 235.467 50.1529 235.341 50.4534L239.034 51.9919C239.377 51.1674 239.539 50.2943 239.539 49.3945H235.539ZM235.341 50.4534C235.205 50.7801 235.022 51.0519 234.789 51.285L237.617 54.1134C238.228 53.5028 238.701 52.7903 239.034 51.9919L235.341 50.4534ZM234.83 51.2452C234.593 51.4692 234.308 51.6563 233.957 51.8023L235.496 55.4946C236.27 55.1719 236.97 54.7261 237.576 54.1532L234.83 51.2452ZM233.957 51.8023C233.648 51.9312 233.313 52 232.934 52V56C233.82 56 234.68 55.8344 235.496 55.4946L233.957 51.8023ZM232.934 52H212.332V56H232.934V52ZM212.332 52C210.532 52 208.702 51.805 206.84 51.4106L206.011 55.3238C208.134 55.7732 210.241 56 212.332 56V52ZM206.84 51.4106C204.997 51.0202 203.206 50.4235 201.465 49.6183L199.785 53.2488C201.794 54.178 203.871 54.8704 206.011 55.3238L206.84 51.4106ZM201.492 49.6313C199.792 48.8137 198.183 47.778 196.663 46.5186L194.111 49.5986C195.872 51.0579 197.755 52.2723 199.758 53.2359L201.492 49.6313ZM196.663 46.5186C195.177 45.2875 193.863 43.8273 192.723 42.1279L189.402 44.3564C190.746 46.3602 192.315 48.111 194.111 49.5986L196.663 46.5186ZM192.739 42.1522C191.638 40.4572 190.753 38.505 190.098 36.2794L186.261 37.4081C187.013 39.9637 188.05 42.2772 189.386 44.3322L192.739 42.1522ZM190.1 36.2845C189.458 34.0805 189.125 31.5889 189.125 28.793H185.125C185.125 31.9033 185.495 34.7788 186.259 37.403L190.1 36.2845ZM189.125 28.793V3.58594H185.125V28.793H189.125ZM187.125 5.58594H196.266V1.58594H187.125V5.58594ZM194.266 3.58594V28.793H198.266V3.58594H194.266ZM194.266 28.793C194.266 31.5407 194.639 33.9857 195.46 36.0664L199.181 34.5977C198.596 33.1159 198.266 31.2015 198.266 28.793H194.266ZM195.468 36.0874C196.269 38.0501 197.302 39.7523 198.592 41.1522L201.533 38.4415C200.62 37.4508 199.825 36.1764 199.172 34.5767L195.468 36.0874ZM198.592 41.1522C199.835 42.5017 201.225 43.5884 202.764 44.3854L204.603 40.8334C203.517 40.2709 202.493 39.4827 201.533 38.4415L198.592 41.1522ZM202.764 44.3854C204.173 45.115 205.543 45.6752 206.871 46.047L207.949 42.1952C206.934 41.9107 205.819 41.4631 204.603 40.8334L202.764 44.3854ZM206.881 46.0497C208.144 46.3966 209.299 46.6344 210.33 46.7429L210.748 42.7649C209.998 42.6859 209.067 42.5019 207.94 42.1924L206.881 46.0497ZM210.386 46.748C211.282 46.817 211.96 46.8594 212.332 46.8594V42.8594C212.142 42.8594 211.624 42.8315 210.692 42.7598L210.386 46.748ZM212.332 46.8594H228.398V42.8594H212.332V46.8594ZM230.398 44.8594V3.58594H226.398V44.8594H230.398ZM228.398 5.58594H237.539V1.58594H228.398V5.58594ZM235.539 3.58594V49.3945H239.539V3.58594H235.539ZM289.641 33.3984V35.3984H291.641V33.3984H289.641ZM260.777 33.3984H258.777V35.3984H260.777V33.3984ZM260.777 24.1875V22.1875H258.777V24.1875H260.777ZM289.641 24.1875H291.641V22.1875H289.641V24.1875ZM293.754 54V56H295.754V54H293.754ZM252.445 51.1523L251.182 52.7028L251.198 52.7155L251.213 52.728L252.445 51.1523ZM249.246 47.1797L247.468 48.0944L247.475 48.1097L247.484 48.1248L249.246 47.1797ZM249.281 4.92188L247.867 3.50766L247.847 3.52786L247.827 3.54863L249.281 4.92188ZM293.754 3.58594H295.754V1.58594H293.754V3.58594ZM293.754 12.7266V14.7266H295.754V12.7266H293.754ZM257.121 12.7266V10.7266H255.121V12.7266H257.121ZM293.754 44.8594H295.754V42.8594H293.754V44.8594ZM289.641 31.3984H260.777V35.3984H289.641V31.3984ZM262.777 33.3984V24.1875H258.777V33.3984H262.777ZM260.777 26.1875H289.641V22.1875H260.777V26.1875ZM287.641 24.1875V33.3984H291.641V24.1875H287.641ZM293.754 52H260.777V56H293.754V52ZM260.777 52C259.744 52 258.555 51.8176 257.198 51.4147L256.06 55.2493C257.703 55.7371 259.28 56 260.777 56V52ZM257.198 51.4147C255.949 51.044 254.778 50.4373 253.677 49.5767L251.213 52.728C252.691 53.883 254.308 54.7294 256.06 55.2493L257.198 51.4147ZM253.709 49.6019C252.672 48.7569 251.766 47.6478 251.009 46.2345L247.484 48.1248C248.46 49.946 249.688 51.4853 251.182 52.7028L253.709 49.6019ZM251.025 46.265C250.362 44.976 249.98 43.3044 249.98 41.168H245.98C245.98 43.7659 246.443 46.1021 247.468 48.0944L251.025 46.265ZM249.98 41.168V8.19141H245.98V41.168H249.98ZM249.98 8.19141C249.98 7.81229 250.049 7.47704 250.178 7.16767L246.486 5.62921C246.146 6.44483 245.98 7.3049 245.98 8.19141H249.98ZM250.178 7.16767C250.324 6.81724 250.511 6.53233 250.735 6.29512L247.827 3.54863C247.254 4.15517 246.809 4.85464 246.486 5.62921L250.178 7.16767ZM250.695 6.33609C250.929 6.10293 251.2 5.91975 251.527 5.78365L249.989 2.09135C249.19 2.424 248.478 2.89707 247.867 3.50766L250.695 6.33609ZM251.527 5.78365C251.828 5.65844 252.173 5.58594 252.586 5.58594V1.58594C251.686 1.58594 250.813 1.74781 249.989 2.09135L251.527 5.78365ZM252.586 5.58594H293.754V1.58594H252.586V5.58594ZM291.754 3.58594V12.7266H295.754V3.58594H291.754ZM293.754 10.7266H257.121V14.7266H293.754V10.7266ZM255.121 12.7266V41.168H259.121V12.7266H255.121ZM255.121 41.168C255.121 42.7099 255.536 44.2039 256.656 45.3244L259.485 42.4959C259.339 42.3508 259.121 42.0167 259.121 41.168H255.121ZM256.656 45.3244C257.783 46.4516 259.295 46.8594 260.848 46.8594V42.8594C259.963 42.8594 259.623 42.6343 259.485 42.4959L256.656 45.3244ZM260.848 46.8594H293.754V42.8594H260.848V46.8594ZM291.754 44.8594V54H295.754V44.8594H291.754ZM333.727 32.9062V34.9062H335.727V32.9062H333.727ZM300.75 32.9062H298.75V34.9062H300.75V32.9062ZM300.75 24.6797V22.6797H298.75V24.6797H300.75ZM333.727 24.6797H335.727V22.6797H333.727V24.6797ZM333.727 30.9062H300.75V34.9062H333.727V30.9062ZM302.75 32.9062V24.6797H298.75V32.9062H302.75ZM300.75 26.6797H333.727V22.6797H300.75V26.6797ZM331.727 24.6797V32.9062H335.727V24.6797H331.727ZM391.172 52.6992L392.545 54.1532L392.566 54.1336L392.586 54.1134L391.172 52.6992ZM355.594 51.4336L354.727 53.2359L354.74 53.2425L354.754 53.2488L355.594 51.4336ZM346.031 43.2422L344.354 44.3322L344.362 44.3444L344.37 44.3564L346.031 43.2422ZM343.148 36.8438L341.228 37.403L341.23 37.4081L343.148 36.8438ZM342.094 3.58594V1.58594H340.094V3.58594H342.094ZM351.234 3.58594H353.234V1.58594H351.234V3.58594ZM352.289 35.332L350.429 36.0664L350.433 36.0769L350.437 36.0874L352.289 35.332ZM362.379 44.1211L361.84 46.047L361.849 46.0497L362.379 44.1211ZM365.508 44.7539L365.298 46.7429L365.326 46.7459L365.354 46.748L365.508 44.7539ZM383.367 44.8594V46.8594H385.367V44.8594H383.367ZM383.367 3.58594V1.58594H381.367V3.58594H383.367ZM392.508 3.58594H394.508V1.58594H392.508V3.58594ZM390.508 49.3945C390.508 49.8072 390.435 50.1529 390.31 50.4534L394.002 51.9919C394.346 51.1674 394.508 50.2943 394.508 49.3945H390.508ZM390.31 50.4534C390.174 50.7801 389.991 51.0519 389.758 51.285L392.586 54.1134C393.197 53.5028 393.67 52.7903 394.002 51.9919L390.31 50.4534ZM389.799 51.2452C389.561 51.4692 389.277 51.6563 388.926 51.8023L390.465 55.4946C391.239 55.1719 391.939 54.7261 392.545 54.1532L389.799 51.2452ZM388.926 51.8023C388.617 51.9312 388.281 52 387.902 52V56C388.789 56 389.649 55.8344 390.465 55.4946L388.926 51.8023ZM387.902 52H367.301V56H387.902V52ZM367.301 52C365.501 52 363.671 51.805 361.809 51.4106L360.98 55.3238C363.102 55.7732 365.21 56 367.301 56V52ZM361.809 51.4106C359.965 51.0202 358.174 50.4235 356.433 49.6183L354.754 53.2488C356.763 54.178 358.839 54.8704 360.98 55.3238L361.809 51.4106ZM356.461 49.6313C354.761 48.8137 353.152 47.778 351.632 46.5186L349.079 49.5986C350.841 51.0579 352.723 52.2723 354.727 53.2359L356.461 49.6313ZM351.632 46.5186C350.146 45.2875 348.832 43.8273 347.692 42.1279L344.37 44.3564C345.715 46.3602 347.284 48.111 349.079 49.5986L351.632 46.5186ZM347.708 42.1522C346.606 40.4572 345.722 38.505 345.067 36.2794L341.23 37.4081C341.981 39.9637 343.019 42.2772 344.354 44.3322L347.708 42.1522ZM345.069 36.2845C344.427 34.0805 344.094 31.5889 344.094 28.793H340.094C340.094 31.9033 340.464 34.7788 341.228 37.403L345.069 36.2845ZM344.094 28.793V3.58594H340.094V28.793H344.094ZM342.094 5.58594H351.234V1.58594H342.094V5.58594ZM349.234 3.58594V28.793H353.234V3.58594H349.234ZM349.234 28.793C349.234 31.5407 349.607 33.9857 350.429 36.0664L354.149 34.5977C353.564 33.1159 353.234 31.2015 353.234 28.793H349.234ZM350.437 36.0874C351.238 38.0501 352.27 39.7523 353.561 41.1522L356.502 38.4415C355.589 37.4508 354.793 36.1764 354.141 34.5767L350.437 36.0874ZM353.561 41.1522C354.804 42.5017 356.194 43.5884 357.733 44.3854L359.572 40.8334C358.486 40.2709 357.461 39.4827 356.502 38.4415L353.561 41.1522ZM357.733 44.3854C359.142 45.115 360.512 45.6752 361.84 46.047L362.918 42.1952C361.902 41.9107 360.788 41.4631 359.572 40.8334L357.733 44.3854ZM361.849 46.0497C363.113 46.3966 364.267 46.6344 365.298 46.7429L365.717 42.7649C364.967 42.6859 364.035 42.5019 362.908 42.1924L361.849 46.0497ZM365.354 46.748C366.251 46.817 366.928 46.8594 367.301 46.8594V42.8594C367.111 42.8594 366.593 42.8315 365.661 42.7598L365.354 46.748ZM367.301 46.8594H383.367V42.8594H367.301V46.8594ZM385.367 44.8594V3.58594H381.367V44.8594H385.367ZM383.367 5.58594H392.508V1.58594H383.367V5.58594ZM390.508 3.58594V49.3945H394.508V3.58594H390.508ZM412.371 54V56H414.371V54H412.371ZM403.23 54H401.23V56H403.23V54ZM403.23 3.58594V1.58594H401.23V3.58594H403.23ZM412.371 3.58594H414.371V1.58594H412.371V3.58594ZM412.371 52H403.23V56H412.371V52ZM405.23 54V3.58594H401.23V54H405.23ZM403.23 5.58594H412.371V1.58594H403.23V5.58594ZM410.371 3.58594V54H414.371V3.58594H410.371Z"/>
</svg>
